<?xml version='1.0' encoding='iso-8859-1'?>
<svg version="1.1" xmlns="http://www.w3.org/2000/svg" viewBox="0 0 44 44" xmlns:xlink="http://www.w3.org/1999/xlink" enable-background="new 0 0 44 44">
  <path d="m22,0c-12.2,0-22,9.8-22,22s9.8,22 22,22 22-9.8 22-22-9.8-22-22-22zm12.7,22.7l-9,9c-0.2,0.2-0.4,0.3-0.7,0.3s-0.5-0.1-0.7-0.3l-1.4-1.4c-0.4-0.4-0.4-1 0-1.4l4-4c0.3-0.3 0.1-0.9-0.4-0.9h-16.5c-0.6,0-1-0.4-1-1v-2c0-0.6 0.4-1 1-1h16.6c0.4,0 0.7-0.5 0.4-0.9l-4-4c-0.4-0.4-0.4-1 0-1.4l1.4-1.4c0.2-0.2 0.4-0.3 0.7-0.3s0.5,0.1 0.7,0.3l9,9c0.2,0.2 0.3,0.5 0.3,0.7-0.1,0.3-0.2,0.5-0.4,0.7z"/>
</svg>
