<?xml version='1.0' encoding='iso-8859-1'?>
<svg version="1.1" xmlns="http://www.w3.org/2000/svg" viewBox="0 0 44 44" xmlns:xlink="http://www.w3.org/1999/xlink" enable-background="new 0 0 44 44">
  <path d="m22,0c-12.2,0-22,9.8-22,22s9.8,22 22,22 22-9.8 22-22-9.8-22-22-22zm-.1,22.3c1.1,1.9 1.9,2.7 3.1,2.7h8c0.3,0 0.5,0.1 0.7,0.3s0.3,0.5 0.3,0.7c0,0.3-0.1,0.5-0.3,0.7l-7,7c-0.2,0.2-0.4,0.3-0.7,0.3-0.3,0-0.5-0.1-0.7-0.3l-1.4-1.4c-0.4-0.4-0.4-1 0-1.4l1-1c0.1-0.1 0.1-0.2 0.1-0.3 0-0.3-0.2-0.5-0.5-0.5-2.1-0.1-3.6-1.2-4.7-2.6-0.2-0.2-0.6-0.2-0.8,0-1.2,1.5-2.8,2.6-5.1,2.6h-3c-0.6,0-1-0.4-1-1v-2c0-0.6 0.4-1 1-1h3c1.2,0 2-0.9 3.1-2.7 0.1-0.2 0.1-0.4 0-0.5-1.1-1.9-1.9-2.7-3.1-2.7h-3c-0.6,0-1-0.4-1-1v-2c0-0.6 0.4-1 1-1h3c2.3,0 3.9,1.1 5.1,2.6 0.2,0.2 0.6,0.3 0.8,0 1.1-1.4 2.6-2.5 4.7-2.6 0.3,0 0.5-0.3 0.5-0.5 0-0.1-0.1-0.2-0.1-0.3l-1-1c-0.4-0.4-0.4-1 0-1.4l1.4-1.4c0.2-0.2 0.4-0.3 0.7-0.3 0.3,0 0.5,0.1 0.7,0.3l7,7c0.2,0.2 0.3,0.5 0.3,0.7 0,0.3-0.1,0.5-0.3,0.7-0.2,0.2-0.4,0.3-0.7,0.3h-8c-1.2,0-2,0.9-3.1,2.7-0.1-0.1-0.1,0.1 0,0.3z"/>
</svg>
