<?xml version='1.0' encoding='iso-8859-1'?>
<svg version="1.1" xmlns="http://www.w3.org/2000/svg" viewBox="0 0 44 44" xmlns:xlink="http://www.w3.org/1999/xlink" enable-background="new 0 0 44 44">
  <g>
    <path d="M22,0C9.8,0,0,9.8,0,22s9.8,22,22,22s22-9.8,22-22S34.2,0,22,0z M35,33c0,0.6-0.4,1-1,1c-0.3,0-0.5-0.1-0.7-0.3l-5.1-4.6   C28.1,29,28,29,27.9,29H12c-1.7,0-3-1.3-3-3V13c0-1.7,1.3-3,3-3h20c1.7,0,3,1.3,3,3V33z"/>
    <path d="m30.5,14h-17c-0.3,0-0.5,0.2-0.5,0.5v10c0,0.3 0.2,0.5 0.5,0.5h14.4c0.8,0 1.6,0.2 2.3,0.7 0.2,0.1 0.5,0.1 0.7-0.2 0-0.1 0.1-0.2 0.1-0.3v-10.7c0-0.3-0.2-0.5-0.5-0.5z"/>
  </g>
</svg>
