<?xml version="1.0" encoding="iso-8859-1"?>
<svg xmlns="http://www.w3.org/2000/svg" xmlns:xlink="http://www.w3.org/1999/xlink" version="1.1" viewBox="0 0 44 44" enable-background="new 0 0 44 44" width="512px" height="512px">
  <g>
    <path d="m29.5,22h-15c-0.3,0-0.5,0.2-0.5,0.5v8c0,0.3 0.2,0.5 0.5,0.5h15c0.3,0 0.5-0.2 0.5-0.5v-8c0-0.3-0.2-0.5-0.5-0.5z" fill="#FFFFFF"/>
    <path d="m19.5,18h5c0.3,0 0.5-0.2 0.5-0.5v-1.5c0-1.7-1.3-3-3-3s-3,1.3-3,3v1.5c0,0.3 0.2,0.5 0.5,0.5z" fill="#FFFFFF"/>
    <path d="M22,0C9.8,0,0,9.8,0,22s9.8,22,22,22s22-9.8,22-22S34.2,0,22,0z M34,34c0,0.6-0.4,1-1,1H11c-0.6,0-1-0.4-1-1V19   c0-0.6,0.4-1,1-1h3.5c0.3,0,0.5-0.2,0.5-0.5V16c0-3.9,3.1-7,7-7s7,3.1,7,7v1.5c0,0.3,0.2,0.5,0.5,0.5H33c0.6,0,1,0.4,1,1V34z" fill="#FFFFFF"/>
  </g>
</svg>
