<?xml version='1.0' encoding='iso-8859-1'?>
<svg version="1.1" xmlns="http://www.w3.org/2000/svg" viewBox="0 0 44 44" xmlns:xlink="http://www.w3.org/1999/xlink" enable-background="new 0 0 44 44">
  <g>
    <path d="m30.5,15c-0.2,0-0.3,0-0.5,0-2.1,0-3.9-0.7-5.4-1.3-1-0.4-2-0.7-2.6-0.7s-1.6,0.4-2.6,0.7c-0.6,0.2-1.3,0.5-2.1,0.7-0.2,0.1-0.4,0.3-0.4,0.5v6.4c0,0.3 0.3,0.6 0.7,0.5 1.3-0.5 2.7-0.9 4.3-0.9 2.1,0 3.9,0.7 5.4,1.3 1,0.4 2,0.7 2.6,0.7 0.2,0 0.4,0 0.6-0.1 0.2-0.1 0.4-0.3 0.4-0.5v-4.6-2.3c0.1-0.2-0.1-0.4-0.4-0.4z"/>
    <path d="m22,0c-12.2,0-22,9.8-22,22s9.8,22 22,22 22-9.8 22-22-9.8-22-22-22zm13,17.8v7.1c0,0.4-0.3,0.8-0.6,0.9-0.1,0-0.2,0.1-0.4,0.1-1.3,0.5-2.6,1-4,1-2.7,0-5.3-2-8-2-1.6,0-3.1,0.7-4.7,1.3-0.2,0.1-0.3,0.3-0.3,0.5v3.8c0,0.3 0.2,0.5 0.5,0.5h2.5c0.6,0 1,0.4 1,1v2c0,0.6-0.4,1-1,1h-10c-0.6,0-1-0.4-1-1v-2c0-0.6 0.4-1 1-1h2.5c0.3,0 0.5-0.2 0.5-0.5v-18.5c0-0.6 0.5-1 1-1 2.7,0 5.3-2 8-2s5.3,2 8,2c1.2,0 2.4-0.4 3.7-0.9 0.1,0 0.2-0.1 0.4-0.1 0.6,0 1,0.4 1,1v6.8h-0.1z"/>
  </g>
</svg>
