<?xml version='1.0' encoding='iso-8859-1'?>
<svg version="1.1" xmlns="http://www.w3.org/2000/svg" viewBox="0 0 44 44" xmlns:xlink="http://www.w3.org/1999/xlink" enable-background="new 0 0 44 44">
  <g>
    <path d="m22,0c-12.2,0-22,9.8-22,22s9.8,22 22,22 22-9.8 22-22-9.8-22-22-22zm12,23c0,0.6-0.4,1-1,1h-1.8c-0.2,0-0.4,0.2-0.5,0.4-0.2,0.7-0.5,1.4-0.9,2.1-0.1,0.2-0.1,0.4 0.1,0.6l1.3,1.3c0.4,0.4 0.4,1 0,1.4l-1.4,1.4c-0.4,0.4-1,0.4-1.4,0l-1.3-1.3c-0.2-0.2-0.4-0.2-0.6-0.1-0.6,0.4-1.3,0.7-2.1,0.9-0.2,0.1-0.4,0.2-0.4,0.5v1.8c0,0.6-0.4,1-1,1h-2c-0.6,0-1-0.4-1-1v-1.8c0-0.2-0.2-0.4-0.4-0.5-0.7-0.2-1.4-0.5-2.1-0.9-0.2-0.1-0.4-0.1-0.6,0.1l-1.3,1.3c-0.4,0.4-1,0.4-1.4,0l-1.4-1.4c-0.4-0.4-0.4-1 0-1.4l1.3-1.3c0.2-0.2 0.2-0.4 0.1-0.6-0.4-0.6-0.7-1.3-0.9-2.1-0.1-0.2-0.2-0.4-0.5-0.4h-1.8c-0.6,0-1-0.4-1-1v-2c0-0.6 0.4-1 1-1h1.8c0.2,0 0.4-0.2 0.5-0.4 0.2-0.7 0.5-1.4 0.9-2.1 0.1-0.2 0.1-0.4-0.1-0.6l-1.3-1.3c-0.4-0.4-0.4-1 0-1.4l1.4-1.4c0.4-0.4 1-0.4 1.4,0l1.3,1.3c0.2,0.2 0.4,0.2 0.6,0.1 0.6-0.4 1.3-0.7 2.1-0.9 0.2-0.1 0.4-0.2 0.4-0.5v-1.8c0-0.6 0.4-1 1-1h2c0.6,0 1,0.4 1,1v1.8c0,0.2 0.2,0.4 0.4,0.5 0.7,0.2 1.4,0.5 2.1,0.9 0.2,0.1 0.4,0.1 0.6-0.1l1.3-1.3c0.4-0.4 1-0.4 1.4,0l1.4,1.4c0.4,0.4 0.4,1 0,1.4l-1.3,1.3c-0.2,0.2-0.2,0.4-0.1,0.6 0.4,0.6 0.7,1.3 0.9,2.1 0.1,0.2 0.2,0.4 0.5,0.4h1.8c0.6,0 1,0.4 1,1v2z"/>
    <circle cx="22" cy="22" r="5"/>
  </g>
</svg>
