<?xml version='1.0' encoding='iso-8859-1'?>
<svg version="1.1" xmlns="http://www.w3.org/2000/svg" viewBox="0 0 44 44" xmlns:xlink="http://www.w3.org/1999/xlink" enable-background="new 0 0 44 44">
  <g>
    <circle cx="22" cy="16" r="3"/>
    <path d="m22,0c-12.2,0-22,9.8-22,22s9.8,22 22,22 22-9.8 22-22-9.8-22-22-22zm10,35h-2c-0.6,0-1-0.4-1-1 0-6.9-1-9-7-9s-7,2.1-7,9c0,0.6-0.4,1-1,1h-2c-0.6,0-1-0.4-1-1 0-5.2 0.6-10.3 5.9-12.2 0.3-0.1 0.4-0.4 0.3-0.6 0-0.1-0.1-0.1-0.1-0.2-1.3-1.3-2.1-3-2.1-4.9 0-3.9 3.1-7 7-7s7,3.1 7,7c0,1.9-0.8,3.7-2.1,4.9-0.1,0.1-0.1,0.1-0.1,0.2-0.1,0.3 0,0.5 0.3,0.6 5.3,1.9 5.9,7 5.9,12.2 0,0.6-0.4,1-1,1z"/>
  </g>
</svg>
