<?xml version='1.0' encoding='iso-8859-1'?>
<svg version="1.1" xmlns="http://www.w3.org/2000/svg" viewBox="0 0 44 44" xmlns:xlink="http://www.w3.org/1999/xlink" enable-background="new 0 0 44 44">
  <g>
    <path d="m30.7,12.8h-6.5c-0.1,0-0.3,0.1-0.4,0.1l-9.5,9.5c-0.2,0.2-0.2,0.5 0,0.7l6.5,6.5c0.2,0.2 0.5,0.2 0.7,0l9.5-9.5c0.1-0.1 0.1-0.2 0.1-0.4v-6.5c0.1-0.2-0.1-0.4-0.4-0.4zm-3.5,6c-1.1,0-2-0.9-2-2s0.9-2 2-2 2,0.9 2,2c0,1.1-0.9,2-2,2z"/>
    <path d="m22,0c-12.2,0-22,9.8-22,22s9.8,22 22,22 22-9.8 22-22-9.8-22-22-22zm13.2,21.2c0,0.3-0.1,0.5-0.3,0.7l-13,13c-0.4,0.4-1,0.4-1.4,0l-11.4-11.4c-0.4-0.4-0.4-1 0-1.4l13-13c0.2-0.2 0.4-0.3 0.7-0.3h11.4c0.6,0 1,0.4 1,1 0,0 0,11.4 0,11.4z"/>
  </g>
</svg>
