<?xml version='1.0' encoding='iso-8859-1'?>
<svg version="1.1" xmlns="http://www.w3.org/2000/svg" viewBox="0 0 44 44" xmlns:xlink="http://www.w3.org/1999/xlink" enable-background="new 0 0 44 44">
  <g>
    <path d="m25.8,14.6c-0.1-0.1-0.2-0.1-0.4-0.1-0.1,0-0.3,0-0.4,0.1l-11.7,11.7c-0.2,0.2-0.2,0.5 0,0.7l3.6,3.7c0.2,0.2 0.5,0.2 0.7,0l11.7-11.7c0.1-0.1 0.1-0.2 0.1-0.4s0-0.3-0.1-0.4l-3.5-3.6z"/>
    <path d="m22,0c-12.2,0-22,9.8-22,22s9.8,22 22,22 22-9.8 22-22-9.8-22-22-22zm12.7,19.3l-15.4,15.4c-0.2,0.2-0.4,0.3-0.7,0.3h-8.6c-0.6,0-1-0.4-1-1v-8.6c0-0.3 0.1-0.5 0.3-0.7l15.4-15.4c0.2-0.2 0.4-0.3 0.7-0.3 0.3,0 0.5,0.1 0.7,0.3l8.6,8.6c0.2,0.2 0.3,0.4 0.3,0.7s-0.1,0.5-0.3,0.7z"/>
  </g>
</svg>
