<?xml version='1.0' encoding='iso-8859-1'?>
<svg version="1.1" xmlns="http://www.w3.org/2000/svg" viewBox="0 0 44 44" xmlns:xlink="http://www.w3.org/1999/xlink" enable-background="new 0 0 44 44">
  <path d="m22,0c-12.2,0-22,9.8-22,22s9.8,22 22,22 22-9.8 22-22-9.8-22-22-22zm12,17c0,0.6-0.4,1-1,1h-2c-0.4,0-0.7-0.2-0.8-0.5-0.1-0.2-0.5-0.3-0.7-0.2 0,0-0.1,0-0.1,0.1l-5.6,5.6c-0.4,0.4-0.9,0.4-1.3,0.1l-3-2.2c-0.2-0.1-0.5-0.1-0.7,0l-4.7,4.7c-0.1,0.1-0.1,0.2-0.1,0.4v4h19c0.6,0 1,0.4 1,1v2c0,0.6-0.4,1-1,1h-22c-0.6,0-1-0.4-1-1v-22c0-0.6 0.4-1 1-1h2c0.6,0 1,0.4 1,1v8c0,0.4 0.5,0.7 0.9,0.4l3.3-3.3c0.4-0.4 0.9-0.4 1.3-0.1l3,2.2c0.2,0.1 0.5,0.1 0.7,0l3.4-3.4c0.2-0.2 0.2-0.5 0-0.7 0,0-0.1,0-0.1-0.1-0.3-0.2-0.5-0.5-0.5-0.8v-2c0-0.6 0.4-1 1-1h6c0.6,0 1,0.4 1,1v5.8z"/>
</svg>
