<?xml version="1.0" encoding="iso-8859-1"?>
<svg xmlns="http://www.w3.org/2000/svg" xmlns:xlink="http://www.w3.org/1999/xlink" version="1.1" viewBox="0 0 44 44" enable-background="new 0 0 44 44" width="512px" height="512px">
  <g>
    <path d="m22,13c-5,0-9,4-9,9s4,9 9,9 9-4 9-9-4-9-9-9zm-6,6c0-1.1 0.9-2 2-2s2,0.9 2,2-0.9,2-2,2-2-0.9-2-2zm10.7,8.1c-1.2,1.2-2.9,1.9-4.7,1.9s-3.5-0.7-4.7-1.9c-0.2-0.2-0.3-0.5-0.3-0.7 0-0.3 0.1-0.5 0.3-0.7l1.4-1.4c0.2-0.2 0.5-0.3 0.7-0.3 0.3,0 0.5,0.1 0.7,0.3 0.4,0.4 1.2,0.7 1.9,0.7s1.5-0.3 1.9-0.7c0.2-0.2 0.5-0.3 0.7-0.3s0.5,0.1 0.7,0.3l1.4,1.4c0.2,0.2 0.3,0.5 0.3,0.7 7.10543e-15,0.3-0.1,0.5-0.3,0.7zm-.7-6.1c-1.1,0-2-0.9-2-2s0.9-2 2-2 2,0.9 2,2-0.9,2-2,2z" fill="#FFFFFF"/>
    <path d="m22,0c-12.2,0-22,9.8-22,22s9.8,22 22,22 22-9.8 22-22-9.8-22-22-22zm0,35c-7.2,0-13-5.8-13-13s5.8-13 13-13 13,5.8 13,13-5.8,13-13,13z" fill="#FFFFFF"/>
  </g>
</svg>
